{
  "accessors": [
    {
      "bufferView": 1,
      "componentType": 5126,
      "count": 25,
      "max": [
        0.25193700194358826,
        -3.2858850955963135,
        0.46186500787734985
      ],
      "min": [
        0.25193700194358826,
        -6.416287899017334,
        -0.012934000231325626
      ],
      "type": "VEC3"
    },
    {
      "bufferView": 0,
      "componentType": 5125,
      "count": 48,
      "max": [
        24
      ],
      "min": [
        0
      ],
      "type": "SCALAR"
    },
    {
      "bufferView": 1,
      "byteOffset": 300,
      "componentType": 5126,
      "count": 432,
      "max": [
        0.38703501224517822,
        -3.2151849269866943,
        -0.089065998792648315
      ],
      "min": [
        -0.5867149829864502,
        -6.4922537803649902,
        -0.2061229944229126
      ],
      "type": "VEC3"
    },
    {
      "bufferView": 1,
      "byteOffset": 5484,
      "componentType": 5126,
      "count": 432,
      "max": [
        1,
        1,
        1
      ],
      "min": [
        -1,
        -1,
        -1
      ],
      "type": "VEC3"
    },
    {
      "bufferView": 0,
      "byteOffset": 192,
      "componentType": 5125,
      "count": 648,
      "max": [
        431
      ],
      "min": [
        0
      ],
      "type": "SCALAR"
    },
    {
      "bufferView": 1,
      "byteOffset": 10668,
      "componentType": 5126,
      "count": 176,
      "max": [
        0.32102099061012268,
        -3.3017709255218506,
        0.40207400918006897
      ],
      "min": [
        -0.52055299282073975,
        -6.4101071357727051,
        -0.095615997910499573
      ],
      "type": "VEC3"
    },
    {
      "bufferView": 1,
      "byteOffset": 12780,
      "componentType": 5126,
      "count": 176,
      "max": [
        1,
        0,
        0
      ],
      "min": [
        -1,
        0,
        0
      ],
      "type": "VEC3"
    },
    {
      "bufferView": 0,
      "byteOffset": 2784,
      "componentType": 5125,
      "count": 264,
      "max": [
        175
      ],
      "min": [
        0
      ],
      "type": "SCALAR"
    },
    {
      "bufferView": 1,
      "byteOffset": 14892,
      "componentType": 5126,
      "count": 552,
      "max": [
        0.41466599702835083,
        -3.7632570266723633,
        0.3876270055770874
      ],
      "min": [
        -0.61335700750350952,
        -5.977449893951416,
        -0.16812600195407867
      ],
      "type": "VEC3"
    },
    {
      "bufferView": 1,
      "byteOffset": 21516,
      "componentType": 5126,
      "count": 552,
      "max": [
        1,
        1,
        1
      ],
      "min": [
        -1,
        -1,
        -1
      ],
      "type": "VEC3"
    },
    {
      "bufferView": 0,
      "byteOffset": 3840,
      "componentType": 5125,
      "count": 1008,
      "max": [
        551
      ],
      "min": [
        0
      ],
      "type": "SCALAR"
    },
    {
      "bufferView": 1,
      "byteOffset": 28140,
      "componentType": 5126,
      "count": 20,
      "max": [
        0.25753098726272583,
        -3.2876319885253906,
        0.14368000626564026
      ],
      "min": [
        -0.45801499485969543,
        -6.417722225189209,
        0.14355799555778503
      ],
      "type": "VEC3"
    },
    {
      "bufferView": 0,
      "byteOffset": 7872,
      "componentType": 5125,
      "count": 32,
      "max": [
        19
      ],
      "min": [
        0
      ],
      "type": "SCALAR"
    },
    {
      "bufferView": 1,
      "byteOffset": 28380,
      "componentType": 5126,
      "count": 7536,
      "max": [
        0.27387100458145142,
        -3.273360013961792,
        0.23058600723743439
      ],
      "min": [
        -0.47435399889945984,
        -6.4319930076599121,
        0.14355799555778503
      ],
      "type": "VEC3"
    },
    {
      "bufferView": 1,
      "byteOffset": 118812,
      "componentType": 5126,
      "count": 7536,
      "max": [
        0.99999761581420898,
        0.99999904632568359,
        0.97006630897521973
      ],
      "min": [
        -0.99999761581420898,
        -0.99999904632568359,
        -0.99999940395355225
      ],
      "type": "VEC3"
    },
    {
      "bufferView": 0,
      "byteOffset": 8000,
      "componentType": 5125,
      "count": 45060,
      "max": [
        7535
      ],
      "min": [
        0
      ],
      "type": "SCALAR"
    },
    {
      "bufferView": 1,
      "byteOffset": 209244,
      "componentType": 5126,
      "count": 8408,
      "max": [
        0.32102099061012268,
        -3.2658569812774658,
        0.48877999186515808
      ],
      "min": [
        -0.52055299282073975,
        -6.4366250038146973,
        -0.16259300708770752
      ],
      "type": "VEC3"
    },
    {
      "bufferView": 1,
      "byteOffset": 310140,
      "componentType": 5126,
      "count": 8408,
      "max": [
        1,
        0.99999988079071045,
        1
      ],
      "min": [
        -1,
        -0.99999988079071045,
        -1
      ],
      "type": "VEC3"
    },
    {
      "bufferView": 0,
      "byteOffset": 188240,
      "componentType": 5125,
      "count": 13704,
      "max": [
        8407
      ],
      "min": [
        0
      ],
      "type": "SCALAR"
    },
    {
      "bufferView": 1,
      "byteOffset": 411036,
      "componentType": 5126,
      "count": 10320,
      "max": [
        0.25777199864387512,
        -3.2805240154266357,
        0.54270297288894653
      ],
      "min": [
        -0.46093800663948059,
        -6.4276819229125977,
        0.068994000554084778
      ],
      "type": "VEC3"
    },
    {
      "bufferView": 1,
      "byteOffset": 534876,
      "componentType": 5126,
      "count": 10320,
      "max": [
        0.99863404035568237,
        0.81126677989959717,
        0.99862915277481079
      ],
      "min": [
        -0.99863642454147339,
        -0.76779484748840332,
        -0.99862915277481079
      ],
      "type": "VEC3"
    },
    {
      "bufferView": 0,
      "byteOffset": 243056,
      "componentType": 5125,
      "count": 15816,
      "max": [
        10319
      ],
      "min": [
        0
      ],
      "type": "SCALAR"
    },
    {
      "bufferView": 1,
      "byteOffset": 658716,
      "componentType": 5126,
      "count": 4416,
      "max": [
        0.26114699244499207,
        -3.28159499168396,
        0.53659898042678833
      ],
      "min": [
        -0.46297800540924072,
        -5.9650959968566895,
        -0.09485500305891037
      ],
      "type": "VEC3"
    },
    {
      "bufferView": 1,
      "byteOffset": 711708,
      "componentType": 5126,
      "count": 4416,
      "max": [
        1,
        1,
        1
      ],
      "min": [
        -1,
        -1,
        -1
      ],
      "type": "VEC3"
    },
    {
      "bufferView": 0,
      "byteOffset": 306320,
      "componentType": 5125,
      "count": 8232,
      "max": [
        4415
      ],
      "min": [
        0
      ],
      "type": "SCALAR"
    }
  ],
  "asset": {
    "extras": {
      "author": "rokudan (https://sketchfab.com/rokudan)",
      "license": "CC-BY-4.0 (http://creativecommons.org/licenses/by/4.0/)",
      "source": "https://sketchfab.com/models/4d26f93c87174cc2ab9040faf949d605",
      "title": "太鼓橋(Taikobashi)"
    },
    "generator": "Sketchfab-3.18.7",
    "version": "2.0"
  },
  "bufferViews": [
    {
      "buffer": 0,
      "byteLength": 339248,
      "byteOffset": 0,
      "name": "floatBufferViews",
      "target": 34963
    },
    {
      "buffer": 0,
      "byteLength": 764700,
      "byteOffset": 339248,
      "byteStride": 12,
      "name": "floatBufferViews",
      "target": 34962
    }
  ],
  "buffers": [
    {
      "byteLength": 1103948,
      "uri": "scene.bin"
    }
  ],
  "materials": [
    {
      "doubleSided": true,
      "emissiveFactor": [
        0,
        0,
        0
      ],
      "name": "material_1",
      "pbrMetallicRoughness": {
        "baseColorFactor": [
          0.280445,
          0.045894999999999998,
          0,
          1
        ],
        "metallicFactor": 0,
        "roughnessFactor": 0.84349154199999998
      }
    },
    {
      "doubleSided": true,
      "emissiveFactor": [
        0,
        0,
        0
      ],
      "name": "material_2",
      "pbrMetallicRoughness": {
        "baseColorFactor": [
          0.64000000000000001,
          0.46555299999999999,
          0,
          1
        ],
        "metallicFactor": 0,
        "roughnessFactor": 0.84349154199999998
      }
    },
    {
      "doubleSided": true,
      "emissiveFactor": [
        0,
        0,
        0
      ],
      "name": "material",
      "pbrMetallicRoughness": {
        "baseColorFactor": [
          0.64000000000000001,
          0.005672,
          0,
          1
        ],
        "metallicFactor": 0,
        "roughnessFactor": 0.84349154199999998
      }
    },
    {
      "doubleSided": true,
      "emissiveFactor": [
        0,
        0,
        0
      ],
      "name": "material_4",
      "pbrMetallicRoughness": {
        "baseColorFactor": [
          0.64000000000000001,
          0.0059810000000000002,
          0,
          1
        ],
        "metallicFactor": 0,
        "roughnessFactor": 0.84349154199999998
      }
    },
    {
      "doubleSided": true,
      "emissiveFactor": [
        0,
        0,
        0
      ],
      "name": "material_5",
      "pbrMetallicRoughness": {
        "baseColorFactor": [
          0.016303000000000002,
          0.016303000000000002,
          0.016303000000000002,
          1
        ],
        "metallicFactor": 0,
        "roughnessFactor": 0.84349154199999998
      }
    }
  ],
  "meshes": [
    {
      "primitives": [
        {
          "attributes": {
            "POSITION": 0
          },
          "indices": 1,
          "material": 0,
          "mode": 1
        }
      ]
    },
    {
      "primitives": [
        {
          "attributes": {
            "NORMAL": 3,
            "POSITION": 2
          },
          "indices": 4,
          "material": 0,
          "mode": 4
        }
      ]
    },
    {
      "primitives": [
        {
          "attributes": {
            "NORMAL": 6,
            "POSITION": 5
          },
          "indices": 7,
          "material": 1,
          "mode": 4
        }
      ]
    },
    {
      "primitives": [
        {
          "attributes": {
            "NORMAL": 9,
            "POSITION": 8
          },
          "indices": 10,
          "material": 3,
          "mode": 4
        }
      ]
    },
    {
      "primitives": [
        {
          "attributes": {
            "POSITION": 11
          },
          "indices": 12,
          "material": 4,
          "mode": 1
        }
      ]
    },
    {
      "primitives": [
        {
          "attributes": {
            "NORMAL": 14,
            "POSITION": 13
          },
          "indices": 15,
          "material": 4,
          "mode": 4
        }
      ]
    },
    {
      "primitives": [
        {
          "attributes": {
            "NORMAL": 17,
            "POSITION": 16
          },
          "indices": 18,
          "material": 2,
          "mode": 4
        }
      ]
    },
    {
      "primitives": [
        {
          "attributes": {
            "NORMAL": 20,
            "POSITION": 19
          },
          "indices": 21,
          "material": 2,
          "mode": 4
        }
      ]
    },
    {
      "primitives": [
        {
          "attributes": {
            "NORMAL": 23,
            "POSITION": 22
          },
          "indices": 24,
          "material": 2,
          "mode": 4
        }
      ]
    }
  ],
  "nodes": [
    {
      "children": [
        1
      ],
      "name": "RootNode (gltf orientation matrix)",
      "rotation": [
        -0.70710678118654746,
        -0,
        -0,
        0.70710678118654757
      ]
    },
    {
      "children": [
        2
      ],
      "name": "RootNode (model correction matrix)"
    },
    {
      "children": [
        3,
        4,
        5,
        6,
        7,
        8,
        9,
        10,
        11
      ],
      "name": "taikobashi.obj.cleaner.materialmerger.gles"
    },
    {
      "mesh": 0,
      "name": ""
    },
    {
      "mesh": 1,
      "name": ""
    },
    {
      "mesh": 2,
      "name": ""
    },
    {
      "mesh": 3,
      "name": ""
    },
    {
      "mesh": 4,
      "name": ""
    },
    {
      "mesh": 5,
      "name": ""
    },
    {
      "mesh": 6,
      "name": ""
    },
    {
      "mesh": 7,
      "name": ""
    },
    {
      "mesh": 8,
      "name": ""
    }
  ],
  "scene": 0,
  "scenes": [
    {
      "name": "OSG_Scene",
      "nodes": [
        0
      ]
    }
  ]
}

