{
  "accessors": [
    {
      "bufferView": 2,
      "componentType": 5126,
      "count": 106,
      "max": [
        0.4482479989528656,
        1,
        0.15419000387191772
      ],
      "min": [
        -0.4482479989528656,
        -1,
        -0.15419000387191772
      ],
      "type": "VEC3"
    },
    {
      "bufferView": 2,
      "byteOffset": 1272,
      "componentType": 5126,
      "count": 106,
      "max": [
        0.92514306306838989,
        0.90753769874572754,
        0.99992561340332031
      ],
      "min": [
        -0.96949052810668945,
        -0.92141109704971313,
        -0.99999678134918213
      ],
      "type": "VEC3"
    },
    {
      "bufferView": 3,
      "componentType": 5126,
      "count": 106,
      "max": [
        0.99996811151504517,
        0.92971241474151611,
        0.95945310592651367,
        -1
      ],
      "min": [
        -0.48950177431106567,
        -0.90197277069091797,
        -0.92734909057617188,
        -1
      ],
      "type": "VEC4"
    },
    {
      "bufferView": 1,
      "componentType": 5126,
      "count": 106,
      "max": [
        0.94204801321029663,
        0.99986797571182251
      ],
      "min": [
        0.00013200000103097409,
        0.00013200000103097409
      ],
      "type": "VEC2"
    },
    {
      "bufferView": 0,
      "componentType": 5125,
      "count": 480,
      "max": [
        105
      ],
      "min": [
        0
      ],
      "type": "SCALAR"
    }
  ],
  "asset": {
    "extras": {
      "author": "miha.gorsin (https://sketchfab.com/miha.gorsin)",
      "license": "CC-BY-4.0 (http://creativecommons.org/licenses/by/4.0/)",
      "source": "https://sketchfab.com/3d-models/viking-stone-carvings-fe9ab74cf4334481ad921c653d9e9270",
      "title": "Viking Stone Carvings"
    },
    "generator": "Sketchfab-8.64.0",
    "version": "2.0"
  },
  "bufferViews": [
    {
      "buffer": 0,
      "byteLength": 1920,
      "byteOffset": 0,
      "name": "floatBufferViews",
      "target": 34963
    },
    {
      "buffer": 0,
      "byteLength": 848,
      "byteOffset": 1920,
      "byteStride": 8,
      "name": "floatBufferViews",
      "target": 34962
    },
    {
      "buffer": 0,
      "byteLength": 2544,
      "byteOffset": 2768,
      "byteStride": 12,
      "name": "floatBufferViews",
      "target": 34962
    },
    {
      "buffer": 0,
      "byteLength": 1696,
      "byteOffset": 5312,
      "byteStride": 16,
      "name": "floatBufferViews",
      "target": 34962
    }
  ],
  "buffers": [
    {
      "byteLength": 7008,
      "uri": "scene.bin"
    }
  ],
  "images": [
    {
      "uri": "textures/1001_baseColor.jpeg"
    },
    {
      "uri": "textures/1001_metallicRoughness.png"
    },
    {
      "uri": "textures/1001_emissive.jpeg"
    },
    {
      "uri": "textures/1001_normal.png"
    }
  ],
  "materials": [
    {
      "doubleSided": true,
      "emissiveFactor": [
        1,
        1,
        1
      ],
      "emissiveTexture": {
        "index": 2,
        "texCoord": 0
      },
      "name": "1001",
      "normalTexture": {
        "index": 3,
        "scale": 1,
        "texCoord": 0
      },
      "occlusionTexture": {
        "index": 1,
        "strength": 1,
        "texCoord": 0
      },
      "pbrMetallicRoughness": {
        "baseColorFactor": [
          1,
          1,
          1,
          1
        ],
        "baseColorTexture": {
          "index": 0,
          "texCoord": 0
        },
        "metallicFactor": 1,
        "metallicRoughnessTexture": {
          "index": 1,
          "texCoord": 0
        },
        "roughnessFactor": 1
      }
    }
  ],
  "meshes": [
    {
      "name": "defaultMaterial",
      "primitives": [
        {
          "attributes": {
            "NORMAL": 1,
            "POSITION": 0,
            "TANGENT": 2,
            "TEXCOORD_0": 3
          },
          "indices": 4,
          "material": 0,
          "mode": 4
        }
      ]
    }
  ],
  "nodes": [
    {
      "children": [
        1
      ],
      "name": "RootNode (gltf orientation matrix)",
      "rotation": [
        -0.70710678118654746,
        -0,
        -0,
        0.70710678118654757
      ]
    },
    {
      "children": [
        2
      ],
      "matrix": [
        0.6309971809387207,
        0,
        0,
        0,
        0,
        0.6309971809387207,
        0,
        0,
        0,
        0,
        0.6309971809387207,
        0,
        0,
        0,
        0,
        1
      ],
      "name": "RootNode (model correction matrix)"
    },
    {
      "children": [
        3
      ],
      "matrix": [
        1,
        0,
        0,
        0,
        0,
        -4.3711390063094768e-08,
        0.999999999999999,
        0,
        0,
        -0.999999999999999,
        -4.3711390063094768e-08,
        0,
        0,
        0,
        0,
        1
      ],
      "name": "Collada visual scene group"
    },
    {
      "children": [
        4
      ],
      "name": "Klesan-kamen-blok-3-lp_Plane"
    },
    {
      "mesh": 0,
      "name": "defaultMaterial"
    }
  ],
  "samplers": [
    {
      "magFilter": 9729,
      "minFilter": 9987,
      "wrapS": 10497,
      "wrapT": 10497
    }
  ],
  "scene": 0,
  "scenes": [
    {
      "name": "OSG_Scene",
      "nodes": [
        0
      ]
    }
  ],
  "textures": [
    {
      "sampler": 0,
      "source": 0
    },
    {
      "sampler": 0,
      "source": 1
    },
    {
      "sampler": 0,
      "source": 2
    },
    {
      "sampler": 0,
      "source": 3
    }
  ]
}

